<svg xmlns:xlink="http://www.w3.org/1999/xlink" xmlns="http://www.w3.org/2000/svg" class="cl-icon" aria-hidden="true" width="32"  height="32" ><defs><symbol id="right" viewBox="0 0 32 32">
  <path d="M23.33 15a1.78 1.78 0 00-.17-.27l-.1-.16v-.07l-10.51-11a1.56 1.56 0 00-1.11-.45 1.58 1.58 0 00-1.21 2.59l9.47 9.96-9.47 10a1.59 1.59 0 001 2.77 1.59 1.59 0 001.23-.6L23 16.72v-.07l.1-.16a2.33 2.33 0 00.17-.26 1.15 1.15 0 00.06-.28 1.34 1.34 0 000-.3 1.54 1.54 0 000-.31v-.06a2.28 2.28 0 000-.26z"></path>
</symbol></defs>
            <use xlink:href="#right" fill="#213343"></use>
          </svg>