<svg height="19" width="14.25" xmlns="http://www.w3.org/2000/svg" xmlns:xlink="http://www.w3.org/1999/xlink">
    <symbol id="a" enable-background="new 0 0 14.25 19" viewBox="0 0 14.25 19" xmlns="http://www.w3.org/2000/svg">
        <path d="m13.9225 5.2324c.6133 2.2106.3595 4.5326-.7147 6.5393-1.0749 2.0067-2.8439 3.4614-4.9806 4.0957-.5524.1641-1.1122.2664-1.672.3114v1.5345h2.9005c.344 0 .622.2882.622.6434 0 .3558-.278.6434-.622.6434h-7.045c-.344 0-.622-.2876-.622-.6434 0-.3551.278-.6434.622-.6434h2.9005v-1.546c-1.1818-.0901-2.3413-.4285-3.4068-1.0391-.3011-.1718-.4093-.5636-.2432-.8743.1667-.3108.5461-.4233.8453-.2516 1.6496.9458 3.5605 1.1671 5.3774.6286 1.8176-.5398 3.3222-1.7764 4.2354-3.4826.9131-1.7062 1.1296-3.6808.6077-5.5607-.5219-1.8806-1.718-3.4363-3.367-4.3814-.3004-.1725-.4093-.5637-.2432-.8744.1667-.3114.5455-.4227.846-.2516 1.94 1.1118 3.3464 2.9415 3.9597 5.1522zm-2.0475 2.2884c0 3.2738-2.6635 5.9375-5.9372 5.9375s-5.9378-2.6636-5.9378-5.9375 2.6642-5.9375 5.9378-5.9375 5.9372 2.6637 5.9372 5.9375z"
              fill="#213343"/>
    </symbol>
    <use fill="#213343" xlink:href="#a"/>
</svg>